<?xml version="1.0" encoding="UTF-8"?>
<svg id="bcfbbech" xmlns="http://www.w3.org/2000/svg" xmlns:xlink="http://www.w3.org/1999/xlink" viewBox="0 0 357 389.55">
  <defs>
    <style>
      .cls-1 {
        fill: url(#Degradado_sin_nombre);
        fill-rule: evenodd;
      }

      .cls-2 {
        fill: url(#Degradado_sin_nombre_4);
      }

      .cls-3 {
        fill: url(#Degradado_sin_nombre_2);
      }

      .cls-4 {
        fill: url(#Degradado_sin_nombre_3);
      }
    </style>
    <linearGradient id="Degradado_sin_nombre" data-name="Degradado sin nombre" x1="162.54" y1="200.98" x2="163.54" y2="200.98" gradientTransform="translate(-58028 78487.55) scale(357 -389.55)" gradientUnits="userSpaceOnUse">
      <stop offset="0" stop-color="#905e26"/>
      <stop offset=".5" stop-color="#f5ec9b"/>
      <stop offset="1" stop-color="#905e26"/>
    </linearGradient>
    <linearGradient id="Degradado_sin_nombre_2" data-name="Degradado sin nombre 2" x1="159.97" y1="203.99" x2="160.97" y2="203.99" gradientTransform="translate(-8465.6 11107.81) scale(53.8 -53.8)" gradientUnits="userSpaceOnUse">
      <stop offset="0" stop-color="#905e26"/>
      <stop offset=".5" stop-color="#f5ec9b"/>
      <stop offset="1" stop-color="#905e26"/>
    </linearGradient>
    <linearGradient id="Degradado_sin_nombre_3" data-name="Degradado sin nombre 3" x1="161.84" y1="202" x2="162.84" y2="202" gradientTransform="translate(-22548 25485.92) scale(140 -125.53)" gradientUnits="userSpaceOnUse">
      <stop offset="0" stop-color="#905e26"/>
      <stop offset=".5" stop-color="#f5ec9b"/>
      <stop offset="1" stop-color="#905e26"/>
    </linearGradient>
    <linearGradient id="Degradado_sin_nombre_4" data-name="Degradado sin nombre 4" x1="162.53" y1="204.65" x2="163.53" y2="204.65" gradientTransform="translate(-56883 9515.05) scale(350 -45.28)" gradientUnits="userSpaceOnUse">
      <stop offset="0" stop-color="#905e26"/>
      <stop offset=".5" stop-color="#f5ec9b"/>
      <stop offset="1" stop-color="#905e26"/>
    </linearGradient>
  </defs>
  <g id="SvgjsG3877">
    <path class="cls-1" d="M0,68.25L178.5,0l178.5,68.25L178.5,10.5,0,68.25ZM0,305.55l178.5,84,178.5-89.25-178.5,78.75L0,305.55Z"/>
  </g>
  <g id="SvgjsG3878">
    <g>
      <polygon class="cls-3" points="175.23 159.92 175.23 140.42 194.51 140.42 194.51 125.63 175.23 125.63 175.23 106.13 159.76 106.13 159.76 125.63 140.71 125.63 140.71 140.87 160.21 140.87 160.21 159.92 175.23 159.92"/>
      <path class="cls-4" d="M244.94,72.5c-2.02-1.79-4.48-3.14-6.72-4.26-.22-.22-.45-.22-.67-.45-1.34-.9-3.14-1.79-4.71-1.79-.9,0-1.57.22-2.24.67-1.79,1.34-2.69,2.91-2.69,4.71.22,1.34,1.12,2.69,2.91,3.59.67.22,1.12.45,1.79.45.9,0,1.79-.22,2.47-.67.67-.22,1.12-.45,1.79-.45,1.57,0,3.36,2.02,4.93,5.38,2.02,4.71-.22,10.31-2.24,15.24-.45,1.12-.9,2.24-1.34,3.36-1.79,4.71-3.59,9.64-5.38,14.35-1.34.67-2.24,1.79-2.47,3.36-1.57,10.09-6.72,10.98-8.29,10.98h-.45c-2.47,0-4.48-1.79-6.05-4.93l-.67-1.12c-1.12-2.47-1.57-4.71-1.57-4.93-.22-1.34-.9-2.24-2.02-2.91,0-.22-.22-.67-.45-.9-2.47-6.95-5.83-16.14-8.74-25.33-1.34-4.26-.22-8.07,3.14-11.21.9-.67,1.79-1.34,2.69-1.12.45,0,.67.22,1.12.45.67.22,1.34.67,2.24.67h.22c2.69,0,5.38-1.79,5.38-4.71,0-1.34-.45-2.47-1.34-3.36-.9-.9-2.02-1.34-3.59-1.12-1.34,0-2.47.45-3.59.9-.67.22-1.34.45-2.02.67-3.81.9-6.95,3.59-8.97,7.17-2.24,4.26-2.91,9.41-1.34,14.12,2.69,8.29,5.6,17.04,8.52,26-.22.67-.45,1.57-.22,2.47.45,2.47,1.12,4.71,2.02,6.95,1.57,3.59,4.03,7.17,7.62,9.41.9.45,1.79.9,2.69,1.34h.9c0,1.57-.22,3.14-.45,4.71-.67,8.74-4.48,17.26-10.09,24.43-11.21,13.9-28.47,20.85-45.95,18.38-5.38-.67-10.54-2.24-15.24-4.48l-2.24-1.12-1.34.22-2.24.45c-2.02.67-3.81,1.12-5.83,1.34-.67.22-1.34.22-2.02.22l-1.12.22c-3.14.45-6.72.45-10.76-.22h-.45c-.67,0-1.12-.22-1.57-.22l6.28-6.28c.67-.67,1.12-1.12,1.57-1.57l3.81-4.48-3.36-4.71c-7.4-10.54-10.76-23.31-8.97-36.09,1.12-9.19,4.93-17.71,10.76-24.88,8.74-10.76,20.62-17.26,34.07-18.61,1.57,3.14,4.93,5.6,8.74,5.6,5.38,0,9.64-4.26,9.64-9.64s-4.26-9.64-9.64-9.64c-4.03,0-7.4,2.47-8.97,5.83-15.92,1.34-30.26,8.97-40.35,21.74-6.72,8.29-10.98,18.38-12.33,28.92-2.02,14.57,1.57,29.37,10.09,41.47-.22.22-.45.45-.67.67l-7.17,6.95c-2.02,2.02-2.69,4.71-2.02,7.17,1.12,3.14,4.03,5.16,9.19,5.83h.45c4.71.67,8.97.67,12.78.22l.9-.22c.67,0,1.57-.22,2.47-.22,2.24-.45,4.26-.9,6.5-1.57h0c5.38,2.69,11.43,4.48,17.48,5.16,2.91.45,5.6.45,8.29.45,17.48,0,34.07-7.85,45.51-21.97,6.72-8.29,10.98-18.38,12.33-28.92.22-2.02.45-3.81.45-5.83,3.14-.67,6.28-3.14,8.07-5.6,2.69-3.36,4.03-7.85,4.93-12.1v-1.79c.22-.9.67-1.79.9-2.91,1.12-3.36,2.47-6.95,3.59-10.31,1.34-4.03,2.91-8.07,4.26-12.33.67-1.79,1.12-4.03,1.12-6.28.22-4.48-1.34-8.52-4.03-10.98Z"/>
    </g>
  </g>
  <g id="SvgjsG3879">
    <path class="cls-2" d="M4,226.8c1.94-.25,3.87-.44,5.81-.59s4.02-.22,6.24-.22c7.74,0,13.63,1.88,17.67,5.65s6.05,9.54,6.05,17.33-2.06,13.39-6.18,16.96c-4.12,3.56-10.21,5.34-18.28,5.34-1.98,0-3.87-.06-5.68-.19s-3.69-.31-5.62-.56c0,0,0-43.73,0-43.73ZM14.13,262.26c2.02.21,3.93.21,5.74,0s3.41-.78,4.79-1.73,2.47-2.36,3.27-4.23,1.2-4.38,1.2-7.51c0-2.76-.32-5.02-.96-6.79s-1.5-3.18-2.59-4.23-2.35-1.78-3.77-2.19-2.91-.62-4.48-.62h-1.51l-1.7.12v27.18h0ZM60.4,237.98c2.14,0,4.14.3,5.99.9s3.45,1.55,4.79,2.87,2.39,3.03,3.15,5.13,1.14,4.63,1.14,7.6-.38,5.5-1.14,7.6-1.81,3.81-3.15,5.13-2.93,2.28-4.79,2.87-3.85.9-5.99.9-4.19-.3-6.02-.9-3.42-1.55-4.76-2.87-2.39-3.03-3.15-5.13-1.14-4.63-1.14-7.6.38-5.43,1.14-7.51,1.81-3.79,3.15-5.13c1.34-1.34,2.92-2.32,4.76-2.93s3.84-.93,6.02-.93h0ZM60.4,262.88c1.85,0,3.3-.62,4.35-1.85s1.58-3.42,1.58-6.55-.53-5.32-1.58-6.58-2.5-1.88-4.35-1.88-3.26.65-4.35,1.95-1.64,3.47-1.64,6.52.54,5.31,1.61,6.55,2.53,1.85,4.39,1.85ZM106.85,267.14c-1.65,1.32-3.42,2.3-5.31,2.93s-3.83.96-5.81.96c-2.14,0-4.16-.29-6.05-.86s-3.55-1.51-4.97-2.81-2.54-2.99-3.37-5.07-1.24-4.6-1.24-7.57.41-5.43,1.24-7.51,1.95-3.79,3.37-5.13,3.08-2.33,4.97-2.97,3.91-.96,6.05-.96c1.32,0,2.76.19,4.32.56s3.13.93,4.69,1.67l-4.08,6.67c-.7-.33-1.52-.57-2.47-.71s-1.77-.22-2.47-.22c-1.89,0-3.47.67-4.73,2.01s-1.88,3.53-1.88,6.58c0,1.56.16,2.84.49,3.83.33.99.79,1.79,1.39,2.41s1.3,1.07,2.1,1.36,1.68.47,2.63.56c1.28.12,2.54.02,3.8-.31,1.26-.33,2.38-.86,3.37-1.61l3.95,6.18ZM112.04,246.08h-3.83v-7.78h3.83v-8.77h9.27v8.77h7.66l-4.32,7.78h-3.64l.31,1.98v9.7c0,1.07.07,1.94.22,2.59s.37,1.17.68,1.54.7.63,1.17.77,1.02.22,1.64.22c.45,0,1.01-.05,1.67-.15s1.36-.22,2.1-.34l.49,4.14.37,3.71c-1.19.25-2.29.43-3.27.56s-2,.19-3.03.19c-3.83,0-6.67-.89-8.52-2.66s-2.78-4.69-2.78-8.77v-13.47h0ZM147.74,237.98c2.14,0,4.14.3,5.99.9s3.45,1.55,4.79,2.87,2.39,3.03,3.15,5.13,1.14,4.63,1.14,7.6-.38,5.5-1.14,7.6-1.81,3.81-3.15,5.13-2.93,2.28-4.79,2.87-3.85.9-5.99.9-4.19-.3-6.02-.9-3.42-1.55-4.76-2.87-2.39-3.03-3.15-5.13-1.14-4.63-1.14-7.6.38-5.43,1.14-7.51,1.81-3.79,3.15-5.13,2.92-2.32,4.76-2.93,3.84-.93,6.02-.93h0ZM147.74,262.88c1.85,0,3.3-.62,4.35-1.85s1.58-3.42,1.58-6.55-.53-5.32-1.58-6.58-2.5-1.88-4.35-1.88-3.26.65-4.35,1.95-1.64,3.47-1.64,6.52.54,5.31,1.61,6.55,2.53,1.85,4.39,1.85ZM180.42,239.47c.49-.33,1.18-.65,2.07-.96s1.88-.46,3-.46c.95,0,1.72.04,2.32.12s.9.1.9.06v8.22c-.95-.08-1.87-.1-2.78-.06-.78.08-1.6.22-2.44.4s-1.62.53-2.32,1.02c-.82.58-1.41,1.36-1.76,2.35s-.53,2.35-.53,4.08v16.43h-9.27v-24.52h-5l3.95-7.85h10.32v2.41c.21-.16.39-.33.56-.49.16-.12.33-.26.49-.4s.33-.26.49-.34h0ZM203.28,234.15h-4.39l4.02-7.66h13.59l13.84,44.11h-10.62l-2.47-8.83-2.41.19h-8.59l-2.1-.19-2.53,8.83h-9.95l11.61-36.45ZM214.83,253.36l-4.08-14.7-4.32,14.7h8.4ZM241.51,257.26c-2.22-.66-4.06-1.67-5.5-3.03s-2.16-3.32-2.16-5.87c0-3.21,1.13-5.72,3.4-7.54s5.39-2.72,9.39-2.72c1.52,0,3.1.16,4.73.49s3.65.93,6.08,1.79l-3.71,6.67c-1.28-.45-2.38-.79-3.3-1.02s-1.99-.34-3.18-.34c-1.11,0-1.99.15-2.63.46s-.96.81-.96,1.51c0,.58.24.99.71,1.24s1.1.51,1.88.8l3.34.99c1.11.33,2.15.72,3.12,1.17s1.79,1.02,2.47,1.7,1.21,1.53,1.61,2.56.59,2.29.59,3.77c0,1.56-.32,3.02-.96,4.35s-1.56,2.5-2.78,3.49-2.7,1.76-4.45,2.32-3.74.83-5.96.83c-.86,0-1.7-.03-2.5-.09s-1.6-.16-2.38-.31-1.61-.34-2.47-.59-1.79-.54-2.78-.86c.08-.29.16-.62.25-.99s.21-.83.37-1.39.35-1.23.56-2.01.47-1.75.8-2.9c1.73.45,3.18.78,4.35.99s2.36.31,3.55.31c.49,0,1.02-.04,1.58-.12s1.08-.23,1.58-.43.91-.47,1.24-.8.49-.76.49-1.3c0-.62-.22-1.05-.65-1.3s-1.08-.51-1.95-.8l-3.77-1.05ZM268.45,257.26c-2.22-.66-4.06-1.67-5.5-3.03s-2.16-3.32-2.16-5.87c0-3.21,1.13-5.72,3.4-7.54s5.39-2.72,9.39-2.72c1.52,0,3.1.16,4.73.49s3.65.93,6.08,1.79l-3.71,6.67c-1.28-.45-2.38-.79-3.3-1.02s-1.99-.34-3.18-.34c-1.11,0-1.99.15-2.63.46s-.96.81-.96,1.51c0,.58.24.99.71,1.24s1.1.51,1.88.8l3.34.99c1.11.33,2.15.72,3.12,1.17s1.79,1.02,2.47,1.7,1.21,1.53,1.61,2.56.59,2.29.59,3.77c0,1.56-.32,3.02-.96,4.35s-1.56,2.5-2.78,3.49-2.7,1.76-4.45,2.32-3.74.83-5.96.83c-.86,0-1.7-.03-2.5-.09s-1.6-.16-2.38-.31-1.61-.34-2.47-.59-1.79-.54-2.78-.86c.08-.29.16-.62.25-.99s.21-.83.37-1.39.35-1.23.56-2.01.47-1.75.8-2.9c1.73.45,3.18.78,4.35.99s2.36.31,3.55.31c.49,0,1.02-.04,1.58-.12s1.08-.23,1.58-.43.91-.47,1.24-.8.49-.76.49-1.3c0-.62-.22-1.05-.65-1.3s-1.08-.51-1.95-.8l-3.77-1.05ZM299.83,238.35v32.24h-9.33v-22.3l.31-2.22h-5.31l4.2-7.72h10.13ZM299.58,235.7h-9.27v-8.4h9.27v8.4ZM313.42,257.26c-2.22-.66-4.06-1.67-5.5-3.03s-2.16-3.32-2.16-5.87c0-3.21,1.13-5.72,3.4-7.54s5.39-2.72,9.39-2.72c1.52,0,3.1.16,4.73.49s3.65.93,6.08,1.79l-3.71,6.67c-1.28-.45-2.38-.79-3.3-1.02s-1.99-.34-3.18-.34c-1.11,0-1.99.15-2.63.46s-.96.81-.96,1.51c0,.58.24.99.71,1.24s1.1.51,1.88.8l3.34.99c1.11.33,2.15.72,3.12,1.17s1.79,1.02,2.47,1.7,1.21,1.53,1.61,2.56.59,2.29.59,3.77c0,1.56-.32,3.02-.96,4.35s-1.56,2.5-2.78,3.49-2.7,1.76-4.45,2.32-3.74.83-5.96.83c-.86,0-1.7-.03-2.5-.09s-1.6-.16-2.38-.31-1.61-.34-2.47-.59-1.79-.54-2.78-.86c.08-.29.16-.62.25-.99s.21-.83.37-1.39.35-1.23.56-2.01.47-1.75.8-2.9c1.73.45,3.18.78,4.35.99s2.36.31,3.55.31c.49,0,1.02-.04,1.58-.12s1.08-.23,1.58-.43.91-.47,1.24-.8.49-.76.49-1.3c0-.62-.22-1.05-.65-1.3s-1.08-.51-1.95-.8l-3.77-1.05ZM336.39,246.08h-3.83v-7.78h3.83v-8.77h9.27v8.77h7.66l-4.32,7.78h-3.64l.31,1.98v9.7c0,1.07.07,1.94.22,2.59s.37,1.17.68,1.54.7.63,1.17.77,1.02.22,1.64.22c.45,0,1.01-.05,1.67-.15s1.36-.22,2.1-.34l.49,4.14.37,3.71c-1.19.25-2.29.43-3.27.56s-2,.19-3.03.19c-3.83,0-6.67-.89-8.52-2.66s-2.78-4.69-2.78-8.77v-13.47Z"/>
  </g>
</svg>